<svg width="18" height="18" fill="none" xmlns="http://www.w3.org/2000/svg"><path d="M13.527 15c-.814 0-1.473.671-1.473 1.5s.659 1.5 1.473 1.5C14.34 18 15 17.329 15 16.5s-.66-1.5-1.473-1.5zm-5.304 0c-.814 0-1.473.671-1.473 1.5S7.41 18 8.223 18c.814 0 1.473-.671 1.473-1.5S9.037 15 8.223 15z" fill="#8D8D8D"/><path fill-rule="evenodd" clip-rule="evenodd" d="M13.527 15.75a.737.737 0 00-.723.75c0 .427.336.75.723.75a.737.737 0 00.723-.75.737.737 0 00-.723-.75zm-5.304 0a.737.737 0 00-.723.75c0 .427.336.75.723.75a.737.737 0 00.723-.75.737.737 0 00-.723-.75zm3.83.75c0-.829.66-1.5 1.474-1.5S15 15.671 15 16.5s-.66 1.5-1.473 1.5c-.814 0-1.473-.671-1.473-1.5zm-5.303 0c0-.829.66-1.5 1.473-1.5.814 0 1.473.671 1.473 1.5S9.037 18 8.223 18c-.814 0-1.473-.671-1.473-1.5zM0 .75A.75.75 0 01.75 0h3.51c.34 0 .639.23.726.558l.967 3.655H17.25a.75.75 0 01.705 1.006l-2.809 7.724a.75.75 0 01-.705.493h-7.02a.75.75 0 01-.726-.558L3.683 1.5H.75A.75.75 0 010 .75zm6.35 4.963l1.648 6.223h5.918l2.263-6.223H6.35z" fill="#8D8D8D"/></svg>