<svg width="14" height="19" fill="none" xmlns="http://www.w3.org/2000/svg"><path d="M6.95 17.72a481.569 481.569 0 00-2.31-3.418c-1.146-1.684-1.925-2.828-2.459-3.743-.407-.699-.645-1.22-.784-1.708-.139-.482-.192-.966-.192-1.601 0-3.336 2.616-6 5.795-6 3.18 0 5.796 2.664 5.796 6 0 .635-.054 1.119-.192 1.6-.14.488-.378 1.01-.785 1.71-.534.914-1.313 2.058-2.46 3.742-.645.95-1.408 2.07-2.31 3.417a.07.07 0 01-.025.025.052.052 0 01-.024.006.052.052 0 01-.024-.006.071.071 0 01-.026-.025l-.623.418.624-.417zM7 10.813c1.942 0 3.477-1.617 3.477-3.563 0-1.946-1.535-3.563-3.477-3.563S3.523 5.304 3.523 7.25c0 1.946 1.535 3.563 3.477 3.563z" stroke="#8D8D8D" stroke-width="1.5"/></svg>