<svg width="18" height="18" fill="none" xmlns="http://www.w3.org/2000/svg"><path d="M11.908 13.537l.364.045.26-.26 1.547-1.548a.766.766 0 01.383-.204l-.15-.735.15.735a.766.766 0 01.434.038l1.88.751h.003a.758.758 0 01.471.694v3.453a.752.752 0 01-.786.743c-6.371-.398-10.143-3.276-12.406-6.542C1.772 7.407 1 3.67.754 1.583A.753.753 0 011.506.75h3.345a.744.744 0 01.69.47h0l.753 1.89h0l.002.004a.746.746 0 01-.161.807s0 0 0 0l-1.55 1.55-.266.267.055.373.742-.11-.742.111h0v.003l.001.006.003.019a3.965 3.965 0 00.055.282A10.436 10.436 0 005.67 9.506c1.06 1.748 2.96 3.622 6.238 4.03z" stroke="#8D8D8D" stroke-width="1.5"/></svg>