<svg width="18" height="19" fill="none" xmlns="http://www.w3.org/2000/svg"><path d="M17.325 4.102V1.22a.72.72 0 00-.72-.72H1.395a.72.72 0 00-.72.72v2.882A.72.72 0 000 4.82v2.963a3.982 3.982 0 00.324 1.584c.097.23.216.446.351.65v7.763c0 .396.322.72.72.72h15.21a.72.72 0 00.72-.72v-7.763A4.023 4.023 0 0018 7.784V4.82a.72.72 0 00-.675-.718zM2.295 2.12h13.41V4.1H2.295V2.12zm8.145 14.762H7.56V14.54h2.88v2.342zm5.265 0H11.88V13.82a.72.72 0 00-.72-.72H6.84a.72.72 0 00-.72.72v3.062H2.295v-5.45a4.056 4.056 0 001.786.407 4.058 4.058 0 002.455-.814.015.015 0 01.014 0 4.056 4.056 0 002.455.815 4.073 4.073 0 002.454-.815.015.015 0 01.014 0 4.056 4.056 0 002.455.815c.548 0 1.08-.106 1.583-.317.068-.03.136-.059.203-.09v5.45h-.009zm.675-9.099c0 1.346-1.102 2.437-2.46 2.437a2.464 2.464 0 01-2.141-1.235.36.36 0 00-.313-.182h-.013a.363.363 0 00-.313.182A2.458 2.458 0 019 10.22a2.46 2.46 0 01-2.137-1.23.371.371 0 00-.644 0 2.467 2.467 0 01-2.14 1.23c-1.356 0-2.459-1.091-2.459-2.437V5.731c0-.006.005-.011.011-.011H16.37c.006 0 .011.005.011.011v2.052z" fill="#8D8D8D"/></svg>