<svg width="25" height="17" fill="none" xmlns="http://www.w3.org/2000/svg"><path d="M5.315 11.566l-4.043 3.888a2.386 2.386 0 01-.263-1.115V1.6l7.33 7.06m7.89.408L24 1.575v12.764c0 .414-.091.793-.252 1.091L18.1 10.032M1.302 1.4l-.029-.019M8.338 8.66l2.058 1.985c.11.105.221.197.331.274 1.12.865 2.422.865 3.536-.005.106-.077.216-.173.318-.27l2.071-1.994" stroke="#8D8D8D" stroke-width="1.5" stroke-miterlimit="10" stroke-linecap="round" stroke-linejoin="round"/><path d="M18.064 9.997l5.683 5.433c-.193.37-.493.61-.824.61H2.087c-.323 0-.617-.225-.815-.586l5.56-5.347" stroke="#8D8D8D" stroke-width="1.5" stroke-miterlimit="10" stroke-linecap="round" stroke-linejoin="round"/><path d="M18.856 1.041h4.355c.272 0 .534.168.723.437a.688.688 0 01.065.096L16.65 8.65l-2.072 1.995a3.268 3.268 0 01-.317.269c-1.114.87-2.417.87-3.536.005a2.778 2.778 0 01-.331-.274L8.337 8.659l-7.329-7.06c.018-.03.041-.063.064-.097.194-.288.456-.461.742-.461h3.904m-3.572 15s-1.266.067-1.137-2.156" stroke="#8D8D8D" stroke-width="1.5" stroke-miterlimit="10" stroke-linecap="round" stroke-linejoin="round"/><path d="M5.373 1.041h14.732" stroke="#8D8D8D" stroke-width="1.358"/></svg>