<svg width="16" height="18" fill="none" xmlns="http://www.w3.org/2000/svg"><path d="M3 4.5V2.7c0-.521.168-1.031.483-1.469A2.937 2.937 0 014.775.235 3.304 3.304 0 016.462.032C7.034.112 7.568.34 8 .688A3.152 3.152 0 019.538.032a3.304 3.304 0 011.687.203c.528.213.977.559 1.292.996.315.438.483.948.483 1.469v1.8h1.5c.398 0 .78.142 1.06.395.282.254.44.597.44.955v9.005c0 .834-.368 1.634-1.024 2.224-.655.59-1.544.921-2.471.921H4c-1.06 0-2.078-.38-2.828-1.054C.422 16.27 0 15.355 0 14.4V5.85c0-.358.158-.701.44-.955A1.589 1.589 0 011.5 4.5H3zm6.635 12.15a2.92 2.92 0 01-.625-1.795V5.85H1.5v8.55c0 .295.065.588.19.861.126.273.31.521.542.73.232.209.508.375.811.488.304.113.629.171.957.171h5.635zM7.5 4.5V2.7c0-.358-.158-.701-.44-.955A1.589 1.589 0 006 1.35c-.398 0-.78.142-1.06.395-.282.254-.44.597-.44.955v1.8h3zm1.5 0h2.5V2.7a1.26 1.26 0 00-.273-.776 1.492 1.492 0 00-.719-.494 1.659 1.659 0 00-.904-.032 1.525 1.525 0 00-.76.442c.101.27.156.56.156.86v1.8zm1.51 10.354c0 .477.21.933.584 1.27.375.337.882.526 1.411.526.53 0 1.036-.19 1.41-.526a1.71 1.71 0 00.585-1.27V5.85h-3.99v9.005z" fill="#8D8D8D"/></svg>