<svg width="18" height="18" fill="none" xmlns="http://www.w3.org/2000/svg"><path fill-rule="evenodd" clip-rule="evenodd" d="M10.621 5.318a1.62 1.62 0 00-1.93-1.592h-.003c-.307.054-.636.262-.9.605-.265.342-.41.752-.41 1.107v.751c0 .354.145.76.41 1.104.266.343.598.552.905.609a1.62 1.62 0 001.928-1.593v-.99zm-2.232-3.28a3.335 3.335 0 013.946 3.28v.991a3.335 3.335 0 01-3.947 3.28h-.003c-.811-.15-1.488-.648-1.952-1.247-.463-.598-.769-1.367-.769-2.153v-.75c0-.785.302-1.554.766-2.155.462-.6 1.141-1.101 1.96-1.246z" fill="#8D8D8D"/><path fill-rule="evenodd" clip-rule="evenodd" d="M9 1.714a7.286 7.286 0 100 14.572A7.286 7.286 0 009 1.714zM0 9a9 9 0 1118 0A9 9 0 010 9z" fill="#8D8D8D"/><path fill-rule="evenodd" clip-rule="evenodd" d="M9 12.335c-2.172 0-4.004 1.248-4.768 2.968a.857.857 0 11-1.567-.696C3.714 12.247 6.173 10.62 9 10.62s5.286 1.627 6.334 3.986a.857.857 0 11-1.566.696c-.764-1.72-2.596-2.968-4.768-2.968z" fill="#8D8D8D"/></svg>