<svg width="156" height="15" fill="none" xmlns="http://www.w3.org/2000/svg"><path d="M5.274 3.046c-.586 0-1.166.086-1.74.257-.574.159-1.136.354-1.685.586l-.88-2.235c.648-.28 1.331-.5 2.052-.66A9.975 9.975 0 015.329.739c.965 0 1.82.153 2.564.458a4.78 4.78 0 011.905 1.32c.525.573.922 1.281 1.19 2.124.282.83.422 1.777.422 2.84 0 1.342-.226 2.52-.678 3.534a5.124 5.124 0 01-2.088 2.345c-.928.55-2.118.824-3.572.824-.745 0-1.422-.055-2.033-.165-.598-.11-1.209-.28-1.832-.513V11.18c.696.22 1.338.39 1.924.513.598.122 1.19.183 1.776.183.562 0 1.057-.067 1.484-.201a3.02 3.02 0 001.1-.623c.305-.28.543-.629.714-1.044.17-.428.268-.916.293-1.466H2.819v-2.27h5.66a3.827 3.827 0 00-.256-1.356 2.78 2.78 0 00-.66-1.008 2.79 2.79 0 00-1.007-.64 3.53 3.53 0 00-1.282-.22zM26.037 14h-2.765V3.23h-3.206a2267.1 2267.1 0 00-.238 1.831c-.073.66-.159 1.331-.257 2.015A61.014 61.014 0 0119.297 9c-.098.599-.196 1.13-.293 1.594-.16.757-.373 1.404-.642 1.942-.256.537-.616.946-1.08 1.227-.452.28-1.044.421-1.777.421-.244 0-.476-.018-.696-.055a4.649 4.649 0 01-.623-.146V11.71c.159.05.312.092.458.129.159.036.33.054.513.054a.816.816 0 00.604-.238c.16-.158.3-.427.422-.806.122-.39.244-.928.366-1.611.061-.294.134-.709.22-1.246.085-.55.183-1.19.293-1.923a108.831 108.831 0 00.714-5.147h8.261V14zm12.751 0H31.26V.922h7.528v2.27h-4.762V6.07h4.433v2.27h-4.433v3.37h4.762V14zm15.306 0h-3.151l-4.744-6.63V14h-2.766V.922h2.766v6.337l4.69-6.337h2.948l-4.762 6.282L54.094 14zm8.606 0h-2.766V3.23h-3.553V.921h9.873v2.307H62.7V14zM74.37.922c1.685 0 2.913.366 3.682 1.099.781.72 1.172 1.715 1.172 2.985 0 .574-.085 1.124-.256 1.649a3.638 3.638 0 01-.861 1.392c-.39.403-.91.72-1.557.952-.647.232-1.447.348-2.4.348h-1.19V14h-2.766V.922h4.176zm-.146 2.27H72.96v3.884h.916c.525 0 .977-.067 1.355-.201.379-.135.672-.348.88-.641.207-.294.31-.672.31-1.136 0-.647-.176-1.124-.53-1.429-.355-.317-.91-.476-1.667-.476zm21.265 4.25c0 1.014-.129 1.936-.385 2.766a5.743 5.743 0 01-1.136 2.125c-.5.598-1.148 1.056-1.941 1.374-.782.317-1.704.476-2.766.476-1.063 0-1.99-.159-2.784-.476-.782-.33-1.43-.788-1.942-1.374-.5-.598-.88-1.313-1.136-2.143-.244-.83-.366-1.752-.366-2.766 0-1.355.22-2.534.66-3.535a5.079 5.079 0 012.05-2.326C86.673 1 87.85.72 89.28.72c1.417 0 2.583.28 3.499.843.916.55 1.593 1.33 2.033 2.344.452 1.002.678 2.18.678 3.535zm-9.544 0c0 .916.116 1.704.349 2.363.231.66.592 1.167 1.08 1.52.489.355 1.118.532 1.887.532.794 0 1.429-.177 1.905-.531.488-.354.842-.861 1.062-1.52.232-.66.348-1.448.348-2.364 0-1.38-.256-2.46-.77-3.242-.512-.781-1.355-1.172-2.527-1.172-.781 0-1.416.177-1.905.531-.488.354-.849.861-1.08 1.52-.233.66-.349 1.448-.349 2.363zm19.726-4.396c-.525 0-.995.104-1.41.312a2.879 2.879 0 00-1.026.897c-.281.379-.495.843-.641 1.392a7.822 7.822 0 00-.202 1.85c0 .928.11 1.722.33 2.382.232.647.592 1.141 1.081 1.483.488.342 1.111.513 1.868.513.537 0 1.069-.06 1.594-.183a15.784 15.784 0 001.74-.513v2.326a9.313 9.313 0 01-1.704.513c-.561.11-1.19.165-1.886.165-1.344 0-2.455-.275-3.334-.824-.867-.562-1.508-1.343-1.923-2.345-.415-1.013-.623-2.192-.623-3.535 0-.989.134-1.893.403-2.71.269-.831.659-1.546 1.172-2.144a5.378 5.378 0 011.923-1.392c.77-.33 1.649-.495 2.638-.495.647 0 1.295.086 1.942.257a9.852 9.852 0 011.886.66l-.897 2.252a14.027 14.027 0 00-1.484-.604 4.36 4.36 0 00-1.447-.257zm8.036-2.124h2.491V7.24c0 .305-.006.647-.018 1.026a296.738 296.738 0 01-.073 2.051 8.136 8.136 0 01-.037.531h.055L122.17.922h3.315V14h-2.473V7.717c0-.33.006-.69.019-1.08l.036-1.154c.025-.367.043-.684.055-.953.025-.28.043-.464.055-.55h-.073L117.041 14h-3.334V.922zM135.747 14h-2.766V3.23h-3.553V.921h9.873v2.307h-3.554V14zM143.241.922h2.491V7.24c0 .305-.006.647-.018 1.026l-.037 1.117c-.012.354-.024.666-.037.934a8.358 8.358 0 01-.036.531h.055l6.044-9.927h3.316V14h-2.473V7.717c0-.33.006-.69.018-1.08l.037-1.154c.024-.367.043-.684.055-.953.024-.28.043-.464.055-.55h-.073L146.575 14h-3.334V.922z" fill="#E11C4B"/></svg>