<svg width="148" height="14" fill="none" xmlns="http://www.w3.org/2000/svg"><path d="M4.997 2.937c-.556 0-1.107.08-1.651.243-.545.15-1.078.336-1.6.556l-.834-2.12A10.617 10.617 0 012.859.988a9.468 9.468 0 012.19-.243c.916 0 1.727.145 2.434.435a4.537 4.537 0 011.809 1.251c.498.545.875 1.217 1.13 2.017.266.788.4 1.687.4 2.695 0 1.275-.215 2.393-.644 3.355a4.863 4.863 0 01-1.982 2.226c-.88.521-2.01.782-3.39.782-.707 0-1.35-.052-1.93-.156a10.327 10.327 0 01-1.738-.487v-2.208c.66.209 1.269.37 1.825.487a8.41 8.41 0 001.686.174c.534 0 1.003-.064 1.409-.192a2.855 2.855 0 001.043-.59c.29-.267.516-.598.678-.992.162-.405.255-.87.278-1.39h-5.39V5.996H8.04a3.633 3.633 0 00-.244-1.287 2.64 2.64 0 00-.626-.956 2.648 2.648 0 00-.956-.609 3.35 3.35 0 00-1.217-.208zm19.708 10.396H22.08V3.11h-3.043l-.226 1.74a61.98 61.98 0 01-.243 1.912 57.86 57.86 0 01-.261 1.825 34.068 34.068 0 01-.278 1.513c-.15.718-.354 1.332-.609 1.843-.243.51-.585.898-1.025 1.164-.43.267-.991.4-1.687.4-.232 0-.452-.017-.66-.052a4.406 4.406 0 01-.592-.139V11.16c.151.046.296.087.435.122.15.035.313.052.487.052a.777.777 0 00.573-.226c.151-.15.284-.406.4-.765.116-.37.232-.88.348-1.53.058-.278.128-.672.209-1.182.08-.522.174-1.13.278-1.826A103.29 103.29 0 0016.864.92h7.841v12.413zm12.102 0h-7.145V.92h7.145v2.156h-4.52v2.73h4.208V7.96h-4.208v3.2h4.52v2.172zm14.528 0h-2.99L43.84 7.04v6.293h-2.625V.92h2.625v6.015L48.292.92h2.8L46.57 6.883l4.764 6.45zm8.169 0h-2.625V3.11h-3.373V.92h9.37v2.19h-3.372v10.223zM70.58.92c1.6 0 2.765.348 3.495 1.043.742.684 1.112 1.628 1.112 2.834 0 .545-.08 1.066-.243 1.565a3.453 3.453 0 01-.817 1.32c-.37.383-.864.685-1.478.905-.614.22-1.373.33-2.277.33h-1.13v4.416h-2.626V.92h3.964zm-.139 2.156h-1.2V6.76h.87c.498 0 .927-.063 1.286-.19.36-.128.638-.331.835-.61.197-.277.296-.637.296-1.077 0-.614-.169-1.066-.505-1.356-.336-.302-.863-.452-1.582-.452zm20.184 4.033c0 .962-.122 1.837-.365 2.625a5.452 5.452 0 01-1.078 2.017c-.475.568-1.09 1.003-1.843 1.304-.742.302-1.617.452-2.625.452-1.009 0-1.89-.15-2.643-.452a4.974 4.974 0 01-1.843-1.304c-.475-.568-.834-1.246-1.078-2.034-.232-.788-.348-1.663-.348-2.625 0-1.287.21-2.405.626-3.356a4.82 4.82 0 011.948-2.208c.88-.533 1.999-.8 3.355-.8 1.345 0 2.452.267 3.32.8.87.522 1.513 1.264 1.93 2.226.43.95.644 2.069.644 3.355zm-9.058 0c0 .87.11 1.617.33 2.243.22.626.562 1.107 1.026 1.443.464.336 1.06.504 1.79.504.754 0 1.357-.168 1.809-.504.463-.336.8-.817 1.008-1.443.22-.626.33-1.373.33-2.243 0-1.31-.243-2.335-.73-3.077-.486-.742-1.286-1.113-2.399-1.113-.742 0-1.344.168-1.808.504-.464.337-.806.818-1.026 1.443-.22.626-.33 1.374-.33 2.243zm18.723-4.172a2.96 2.96 0 00-1.34.295 2.731 2.731 0 00-.973.852c-.266.36-.47.8-.608 1.321a7.409 7.409 0 00-.192 1.756c0 .881.105 1.635.313 2.26.22.615.563 1.084 1.026 1.409.464.324 1.055.487 1.774.487.51 0 1.014-.058 1.512-.174.51-.116 1.061-.278 1.652-.487v2.208a8.857 8.857 0 01-1.617.487 9.364 9.364 0 01-1.791.156c-1.275 0-2.33-.26-3.164-.782-.823-.533-1.431-1.275-1.826-2.226-.394-.962-.59-2.08-.59-3.355 0-.939.127-1.797.382-2.573a5.865 5.865 0 011.112-2.034 5.106 5.106 0 011.826-1.322c.73-.313 1.565-.469 2.504-.469.614 0 1.228.081 1.842.243a9.42 9.42 0 011.791.626l-.852 2.139c-.463-.22-.933-.412-1.408-.574a4.138 4.138 0 00-1.373-.243zM107.917.92h2.365v5.998c0 .29-.006.614-.018.974a271.542 271.542 0 01-.069 1.947 8.574 8.574 0 01-.035.504h.052L115.949.92h3.147v12.413h-2.347V7.37c0-.313.006-.655.017-1.026l.035-1.095c.023-.348.041-.65.052-.904.024-.267.041-.44.053-.522h-.07l-5.755 9.51h-3.164V.92zm20.919 12.413h-2.625V3.11h-3.373V.92h9.371v2.19h-3.373v10.223zM135.949.92h2.364v5.998c0 .29-.005.614-.017.974l-.035 1.06a84.02 84.02 0 01-.034.887 8.574 8.574 0 01-.035.504h.052L143.981.92h3.147v12.413h-2.347V7.37c0-.313.006-.655.017-1.026l.035-1.095c.023-.348.041-.65.052-.904.023-.267.041-.44.052-.522h-.069l-5.755 9.51h-3.164V.92z" fill="#E11C4B"/></svg>