<svg width="156" height="15" viewBox="0 0 156 15" fill="none" xmlns="http://www.w3.org/2000/svg">
<path d="M5.27385 3.04633C4.6877 3.04633 4.10765 3.13181 3.53372 3.30277C2.95978 3.46151 2.39805 3.6569 1.84853 3.88892L0.96931 1.65422C1.61652 1.37336 2.30036 1.15355 3.02083 0.994801C3.74131 0.823841 4.51063 0.738361 5.3288 0.738361C6.2935 0.738361 7.14831 0.891004 7.8932 1.19629C8.65032 1.48937 9.28531 1.92898 9.79819 2.51513C10.3233 3.08907 10.7202 3.79733 10.9888 4.63992C11.2697 5.4703 11.4101 6.41669 11.4101 7.47908C11.4101 8.82234 11.1842 10.0007 10.7324 11.0143C10.2805 12.0156 9.58449 12.7972 8.64421 13.3589C7.71614 13.9084 6.52552 14.1832 5.07236 14.1832C4.32746 14.1832 3.64972 14.1282 3.03915 14.0183C2.44079 13.9084 1.83022 13.7375 1.20743 13.5054V11.1792C1.90349 11.399 2.54459 11.5699 3.13074 11.692C3.7291 11.8141 4.32135 11.8752 4.9075 11.8752C5.46923 11.8752 5.9638 11.808 6.3912 11.6737C6.83081 11.5272 7.19715 11.3196 7.49023 11.0509C7.79551 10.7701 8.03364 10.422 8.2046 10.0069C8.37556 9.57945 8.47325 9.091 8.49767 8.54148H2.81935V6.27015H8.47935C8.46714 5.75727 8.38166 5.30544 8.22291 4.91468C8.06417 4.5117 7.84436 4.17588 7.5635 3.90723C7.28263 3.62637 6.94682 3.41267 6.55605 3.26613C6.1775 3.11959 5.75009 3.04633 5.27385 3.04633ZM26.0374 14H23.2715V3.2295H20.066C19.9927 3.79122 19.9133 4.4018 19.8278 5.06122C19.7546 5.72063 19.6691 6.39226 19.5714 7.07611C19.4859 7.74774 19.3943 8.38884 19.2967 8.99941C19.199 9.59777 19.1013 10.129 19.0036 10.593C18.8448 11.3501 18.6311 11.9973 18.3625 12.5346C18.106 13.0719 17.7458 13.481 17.2818 13.7619C16.8299 14.0427 16.2377 14.1832 15.505 14.1832C15.2608 14.1832 15.0287 14.1649 14.8089 14.1282C14.5891 14.0916 14.3815 14.0427 14.1862 13.9817V11.7104C14.3449 11.7592 14.4975 11.8019 14.6441 11.8386C14.8028 11.8752 14.9738 11.8935 15.157 11.8935C15.4012 11.8935 15.6027 11.8141 15.7614 11.6554C15.9202 11.4967 16.0606 11.228 16.1827 10.8494C16.3048 10.4587 16.427 9.92137 16.5491 9.23753C16.6101 8.94446 16.6834 8.52927 16.7689 7.99196C16.8544 7.44245 16.9521 6.80135 17.062 6.06866C17.1841 5.32376 17.3062 4.51781 17.4283 3.65079C17.5504 2.77157 17.6664 1.86181 17.7763 0.921532H26.0374V14ZM38.7883 14H31.2599V0.921532H38.7883V3.19286H34.0258V6.06866H38.4586V8.33999H34.0258V11.7104H38.7883V14ZM54.0936 14H50.943L46.1989 7.36918V14H43.433V0.921532H46.1989V7.25928L50.8881 0.921532H53.8371L49.0747 7.20433L54.0936 14ZM62.7004 14H59.9345V3.2295H56.3809V0.921532H66.2539V3.2295H62.7004V14ZM74.3703 0.921532C76.0554 0.921532 77.2827 1.28788 78.052 2.02056C78.8335 2.74104 79.2243 3.73627 79.2243 5.00626C79.2243 5.5802 79.1388 6.12972 78.9679 6.65481C78.7969 7.16769 78.5099 7.63173 78.107 8.04692C77.7162 8.44989 77.1972 8.76739 76.55 8.99941C75.9028 9.23143 75.1029 9.34744 74.1505 9.34744H72.9598V14H70.1939V0.921532H74.3703ZM74.2237 3.19286H72.9598V7.07611H73.8757C74.4008 7.07611 74.8526 7.00894 75.2312 6.87462C75.6097 6.74029 75.9028 6.52659 76.1104 6.23351C76.318 5.94044 76.4218 5.56189 76.4218 5.09785C76.4218 4.45064 76.2447 3.9744 75.8906 3.66911C75.5365 3.35161 74.9808 3.19286 74.2237 3.19286ZM95.4887 7.44245C95.4887 8.456 95.3605 9.37796 95.104 10.2083C94.8598 11.0265 94.4812 11.7348 93.9684 12.3331C93.4677 12.9315 92.8205 13.3894 92.0267 13.7069C91.2452 14.0244 90.3232 14.1832 89.2608 14.1832C88.1984 14.1832 87.2704 14.0244 86.4766 13.7069C85.6951 13.3772 85.0479 12.9193 84.535 12.3331C84.0343 11.7348 83.6558 11.0204 83.3993 10.19C83.1551 9.35965 83.033 8.43768 83.033 7.42413C83.033 6.06866 83.2528 4.89025 83.6924 3.88892C84.1442 2.88758 84.8281 2.11215 85.7439 1.56263C86.672 1.00091 87.8504 0.720044 89.2792 0.720044C90.6957 0.720044 91.8619 1.00091 92.7777 1.56263C93.6936 2.11215 94.3713 2.89368 94.8109 3.90723C95.2628 4.90857 95.4887 6.08698 95.4887 7.44245ZM85.9454 7.44245C85.9454 8.35831 86.0614 9.14595 86.2935 9.80537C86.5255 10.4648 86.8857 10.9716 87.3742 11.3257C87.8626 11.6798 88.4915 11.8569 89.2608 11.8569C90.0546 11.8569 90.6896 11.6798 91.1658 11.3257C91.6543 10.9716 92.0084 10.4648 92.2282 9.80537C92.4602 9.14595 92.5763 8.35831 92.5763 7.44245C92.5763 6.06255 92.3198 4.98184 91.8069 4.20031C91.294 3.41877 90.4515 3.02801 89.2792 3.02801C88.4976 3.02801 87.8626 3.20507 87.3742 3.55921C86.8857 3.91334 86.5255 4.42011 86.2935 5.07953C86.0614 5.73895 85.9454 6.52659 85.9454 7.44245ZM105.671 3.04633C105.146 3.04633 104.676 3.15012 104.261 3.35772C103.858 3.56531 103.516 3.86449 103.235 4.25526C102.954 4.63381 102.74 5.09785 102.594 5.64737C102.46 6.19688 102.392 6.81356 102.392 7.4974C102.392 8.42547 102.502 9.21922 102.722 9.87863C102.954 10.5258 103.314 11.0204 103.803 11.3623C104.291 11.7042 104.914 11.8752 105.671 11.8752C106.208 11.8752 106.74 11.8141 107.265 11.692C107.802 11.5699 108.382 11.399 109.005 11.1792V13.5054C108.431 13.7375 107.863 13.9084 107.301 14.0183C106.74 14.1282 106.111 14.1832 105.415 14.1832C104.071 14.1832 102.96 13.9084 102.081 13.3589C101.214 12.7972 100.573 12.0156 100.158 11.0143C99.7425 10.0007 99.5349 8.82234 99.5349 7.47908C99.5349 6.48996 99.6692 5.58631 99.9379 4.76814C100.207 3.93776 100.597 3.22339 101.11 2.62503C101.635 2.02667 102.276 1.56263 103.033 1.23292C103.803 0.903215 104.682 0.738361 105.671 0.738361C106.318 0.738361 106.966 0.823841 107.613 0.994801C108.272 1.15355 108.901 1.37336 109.499 1.65422L108.602 3.90723C108.113 3.67522 107.619 3.47373 107.118 3.30277C106.63 3.13181 106.147 3.04633 105.671 3.04633ZM113.707 0.921532H116.198V7.24096C116.198 7.54625 116.192 7.88817 116.18 8.26672C116.168 8.64528 116.156 9.01773 116.143 9.38407C116.131 9.7382 116.119 10.0496 116.107 10.3182C116.095 10.5747 116.082 10.7518 116.07 10.8494H116.125L122.17 0.921532H125.485V14H123.012V7.71721C123.012 7.3875 123.018 7.02726 123.031 6.63649C123.043 6.23351 123.055 5.84885 123.067 5.48251C123.092 5.11617 123.11 4.79867 123.122 4.53002C123.147 4.24915 123.165 4.06598 123.177 3.9805H123.104L117.041 14H113.707V0.921532ZM135.747 14H132.981V3.2295H129.428V0.921532H139.301V3.2295H135.747V14ZM143.241 0.921532H145.732V7.24096C145.732 7.54625 145.726 7.88817 145.714 8.26672C145.701 8.64528 145.689 9.01773 145.677 9.38407C145.665 9.7382 145.653 10.0496 145.64 10.3182C145.628 10.5747 145.616 10.7518 145.604 10.8494H145.659L151.703 0.921532H155.019V14H152.546V7.71721C152.546 7.3875 152.552 7.02726 152.564 6.63649C152.577 6.23351 152.589 5.84885 152.601 5.48251C152.625 5.11617 152.644 4.79867 152.656 4.53002C152.68 4.24915 152.699 4.06598 152.711 3.9805H152.638L146.575 14H143.241V0.921532Z" fill="#E11C4B"/>
</svg>
